<?xml version="1.0" standalone="no"?>
<!DOCTYPE svg PUBLIC "-//W3C//DTD SVG 20010904//EN"
 "http://www.w3.org/TR/2001/REC-SVG-20010904/DTD/svg10.dtd">
<svg version="1.0" xmlns="http://www.w3.org/2000/svg"
 width="501.000000pt" height="498.000000pt" viewBox="0 0 501.000000 498.000000"
 preserveAspectRatio="xMidYMid meet">
<metadata>
Created by potrace 1.15, written by Peter Selinger 2001-2017
</metadata>
<g transform="translate(0.000000,498.000000) scale(0.100000,-0.100000)"
fill="#000000" stroke="none">
<path d="M0 2490 l0 -2490 2505 0 2505 0 0 2490 0 2490 -2505 0 -2505 0 0
-2490z m2775 2400 c233 -26 484 -96 685 -191 279 -132 467 -261 679 -465 190
-183 290 -313 436 -567 67 -117 151 -295 143 -302 -2 -3 -22 35 -43 83 -217
487 -564 875 -1010 1130 -110 63 -252 132 -346 168 -606 234 -1365 177 -1934
-146 -315 -178 -571 -398 -763 -653 -146 -196 -283 -460 -361 -697 -33 -102
-81 -302 -80 -335 0 -11 16 45 34 125 40 174 89 317 155 454 149 305 261 467
465 672 184 185 318 286 557 423 329 188 718 286 1133 284 226 -1 345 -16 558
-68 293 -73 638 -248 887 -449 346 -280 616 -671 759 -1101 95 -284 126 -470
125 -750 0 -392 -76 -716 -247 -1062 -135 -273 -278 -469 -484 -667 -391 -374
-911 -606 -1446 -646 -357 -26 -692 25 -1032 157 -736 286 -1275 930 -1443
1723 -36 169 -47 288 -47 519 0 157 -3 208 -8 170 -14 -88 0 -439 22 -582 65
-405 228 -783 480 -1107 90 -115 179 -213 259 -283 37 -33 81 -72 99 -88 38
-34 225 -163 303 -209 230 -136 505 -235 816 -292 164 -30 562 -32 729 -5 500
84 969 322 1319 671 273 272 509 681 612 1061 36 131 46 139 14 10 -49 -196
-162 -465 -259 -619 -274 -435 -573 -708 -1006 -921 -318 -156 -613 -228 -986
-239 -309 -9 -621 47 -929 169 -165 66 -244 109 -453 247 -257 169 -440 353
-633 638 -88 131 -244 426 -244 463 0 7 -4 17 -9 22 -5 6 -20 48 -35 95 -100
328 -145 693 -117 961 18 179 21 200 37 274 69 326 180 597 349 855 95 145
161 227 284 354 374 383 870 636 1396 711 110 16 457 19 580 5z"/>
<path d="M2360 4843 c-102 -10 -102 -9 -96 -59 4 -24 8 -64 11 -88 l6 -44 82
5 c45 3 86 9 91 13 5 5 5 29 2 55 l-7 46 -47 -3 c-34 -2 -47 -7 -47 -18 0 -8
10 -16 23 -18 32 -5 27 -19 -9 -24 -33 -5 -37 -1 -41 47 l-3 30 70 6 c39 4 73
4 76 0 4 -3 9 -38 11 -78 l4 -72 -76 -6 c-41 -4 -93 -7 -115 -8 l-39 -2 -8 60
c-18 150 -15 142 -51 138 -18 -2 -78 -14 -135 -25 -84 -17 -102 -24 -98 -37 2
-9 12 -49 21 -89 16 -66 20 -73 39 -68 11 2 50 10 84 18 l64 12 -7 51 c-3 27
-8 51 -9 53 -5 4 -86 -15 -93 -22 -13 -12 8 -38 27 -33 34 9 22 -12 -12 -22
-27 -7 -28 -9 -10 -10 33 -1 62 17 56 34 -4 10 -14 13 -31 9 -19 -5 -24 -3
-21 7 3 8 21 17 41 20 35 6 36 5 42 -33 4 -22 5 -41 3 -42 -1 -2 -34 -10 -73
-19 -50 -11 -72 -12 -77 -4 -10 16 -31 137 -25 143 13 13 237 53 237 42 0 -16
22 -177 26 -190 4 -12 13 -16 32 -13 24 4 158 14 205 15 15 0 17 11 17 89 0
54 -4 93 -11 97 -6 3 -49 3 -95 -1 l-84 -7 0 -54 c0 -59 3 -61 69 -48 36 8 45
44 11 44 -11 0 -20 5 -20 10 0 6 15 10 34 10 32 0 34 -2 38 -37 3 -21 4 -39 3
-41 -2 -2 -37 -6 -78 -9 l-74 -6 -6 39 c-12 72 -8 112 11 118 9 2 65 8 125 12
l107 6 0 -109 0 -110 83 -6 c45 -4 101 -7 125 -7 l42 0 -2 38 c-1 36 -1 36 -5
5 l-4 -32 -97 5 c-53 3 -103 7 -109 10 -9 2 -13 33 -13 109 l0 105 -77 -2
c-43 0 -94 -3 -113 -5z"/>
<path d="M2580 4751 l0 -88 76 -7 c42 -4 77 -6 79 -4 1 2 6 29 9 61 l7 57 -45
0 c-39 0 -46 -3 -46 -20 0 -11 6 -20 14 -20 8 0 18 -4 21 -10 4 -6 -9 -10 -30
-10 l-37 0 4 45 c2 25 0 45 -4 45 -5 0 -8 -22 -8 -50 l0 -50 45 0 c35 0 45 4
45 16 0 9 -9 18 -20 21 -32 9 -23 25 13 21 31 -3 32 -4 29 -48 -2 -25 -5 -46
-5 -47 -1 0 -33 1 -70 4 l-68 6 2 78 2 79 30 0 c17 0 70 -5 119 -11 101 -13
96 -4 76 -132 -13 -90 -13 -91 61 -102 73 -10 229 -52 320 -85 47 -17 88 -27
92 -23 4 5 21 43 38 86 l29 77 -26 14 c-38 19 -132 49 -138 44 -2 -3 -10 -25
-18 -51 l-14 -46 31 -10 c16 -6 36 -11 43 -11 19 0 18 29 -1 36 -8 4 -15 11
-15 16 0 11 49 2 63 -11 7 -7 -16 -81 -25 -81 -9 1 -130 47 -131 51 -5 12 39
132 50 136 7 3 51 -9 99 -26 137 -50 129 -36 81 -148 -29 -67 -38 -98 -29
-101 6 -2 60 -28 119 -57 59 -30 108 -53 109 -52 1 1 20 36 43 78 l42 77 -75
41 c-41 23 -80 41 -85 41 -10 0 -56 -79 -49 -85 8 -7 84 -45 90 -45 17 0 7 39
-12 45 -18 6 -29 25 -15 25 6 0 66 -29 73 -35 2 -1 -5 -19 -14 -38 l-17 -36
-69 35 c-37 19 -68 38 -68 43 0 6 12 37 26 71 31 70 27 70 144 7 118 -63 115
-52 48 -169 -22 -38 -38 -71 -36 -73 19 -19 196 -138 207 -139 13 -1 111 117
111 134 0 8 -97 81 -137 104 -12 6 -63 -58 -63 -79 0 -5 16 -20 36 -33 29 -19
38 -21 51 -11 13 11 12 15 -9 30 -34 26 -14 35 21 9 17 -12 31 -24 31 -28 0
-4 -11 -20 -23 -36 l-24 -29 -61 43 c-34 24 -62 47 -62 50 0 3 18 34 40 68
l41 63 72 -51 c40 -27 85 -60 102 -73 33 -28 36 -19 -50 -131 l-46 -60 85 -78
c46 -43 121 -121 166 -173 l82 -95 59 46 c32 26 64 53 70 60 11 14 6 22 -72
112 l-29 33 -35 -28 c-19 -15 -35 -33 -35 -39 0 -5 13 -23 28 -38 25 -23 31
-25 41 -12 8 10 9 16 1 21 -5 3 -10 10 -10 16 0 17 18 9 35 -17 17 -26 17 -27
-11 -50 -16 -13 -31 -23 -34 -24 -3 0 -25 25 -49 56 l-43 56 38 36 c75 71 64
73 148 -25 42 -48 76 -91 76 -95 0 -4 -36 -35 -80 -69 -48 -37 -77 -66 -73
-73 4 -6 35 -52 70 -102 l63 -92 79 47 c68 39 77 48 66 61 -7 8 -14 20 -16 25
-11 29 -65 105 -74 105 -5 -1 -25 -14 -43 -29 -29 -25 -32 -32 -23 -49 29 -55
68 -64 57 -13 l-6 26 20 -24 c26 -31 25 -36 -10 -61 l-30 -21 -40 62 c-22 34
-38 64 -36 66 14 14 111 83 117 83 6 0 58 -77 108 -162 l22 -37 -81 -47 c-45
-26 -84 -52 -86 -59 -4 -9 75 -183 92 -204 2 -2 27 7 56 19 29 13 68 29 86 37
l33 14 -42 80 -42 80 -40 -25 c-23 -13 -43 -28 -44 -32 -2 -5 6 -24 17 -42 17
-28 23 -32 36 -21 8 7 12 20 9 30 -10 29 3 22 20 -11 l15 -30 -36 -15 c-21 -8
-38 -14 -39 -13 -1 2 -16 29 -33 60 l-31 56 68 36 68 35 26 -47 c14 -26 36
-72 50 -104 l25 -56 -89 -38 c-49 -20 -92 -41 -95 -45 -2 -4 9 -43 25 -86 48
-127 83 -258 102 -375 6 -43 16 -78 22 -78 5 0 49 5 97 12 l87 11 -20 91 c-10
50 -23 95 -27 99 -4 4 -27 3 -52 -3 l-45 -12 8 -41 c4 -23 8 -45 9 -49 0 -5 9
-8 20 -8 15 0 20 7 20 26 0 34 17 22 22 -16 3 -19 0 -30 -7 -30 -7 0 -26 -3
-42 -6 -30 -6 -30 -5 -42 56 -7 34 -15 68 -18 75 -5 14 28 26 108 40 l37 7 20
-89 c11 -48 23 -107 27 -129 l6 -41 -73 -7 c-40 -4 -88 -9 -106 -13 l-32 -5 6
-112 c4 -61 9 -114 13 -118 3 -3 45 -8 94 -10 l87 -3 0 56 c0 31 -3 71 -6 88
-6 30 -9 31 -55 31 l-49 0 0 -45 c0 -38 3 -45 19 -45 11 0 22 8 24 18 3 9 5 2
6 -15 1 -30 -2 -33 -29 -33 -35 0 -37 3 -43 88 l-5 62 73 0 c87 0 82 7 87
-130 l3 -95 -106 -3 -106 -3 -7 -120 c-4 -67 -5 -124 -2 -127 8 -8 94 -21 143
-21 l41 -1 4 55 c1 30 0 65 -4 77 -4 14 -6 0 -7 -37 -2 -86 -4 -88 -92 -78
l-74 8 3 60 c2 34 5 70 7 80 2 11 4 36 4 57 l1 36 98 -5 c90 -5 99 -4 106 13
8 22 -3 226 -14 243 -5 8 -31 10 -90 5 l-83 -7 7 -60 c3 -33 6 -71 6 -83 0
-22 4 -24 50 -24 l50 0 0 45 c0 38 -3 45 -20 45 -13 0 -20 -7 -20 -20 0 -11
-4 -20 -10 -20 -5 0 -10 16 -10 35 0 34 1 35 39 35 45 0 51 -11 51 -98 l0 -53
-82 3 -82 3 -2 30 c-2 17 -5 64 -7 106 l-5 77 56 6 c157 19 152 17 152 40 0
29 -47 256 -54 264 -4 3 -43 -3 -89 -14 -58 -14 -81 -24 -80 -35 4 -30 33
-162 35 -164 2 -1 26 1 53 4 l50 6 -3 35 c-2 19 -8 43 -13 52 -14 25 -37 12
-31 -18 2 -13 0 -24 -6 -24 -18 0 -27 71 -11 81 13 8 69 13 69 6 0 -8 22 -124
26 -138 3 -13 -5 -18 -38 -22 -24 -3 -62 -9 -84 -13 l-41 -6 -7 48 c-4 27 -14
80 -23 117 -19 82 -23 78 94 103 46 9 86 21 88 25 17 27 -188 529 -216 529 -9
0 -111 -50 -138 -69 -12 -7 -8 -21 20 -75 19 -36 39 -66 46 -66 18 0 83 32 83
42 0 4 -7 23 -16 41 -12 25 -21 33 -35 30 -14 -4 -17 -11 -13 -29 8 -33 -2
-30 -20 4 -15 28 -14 29 21 46 19 9 37 16 38 14 1 -2 17 -31 34 -65 l31 -62
-54 -24 c-96 -44 -88 -47 -134 48 -23 47 -42 89 -42 93 0 5 35 28 78 52 42 24
79 45 81 47 8 6 -25 68 -77 146 -30 45 -56 84 -58 86 -2 2 -27 -13 -56 -33
-100 -70 -95 -55 -47 -133 23 -37 44 -70 45 -72 4 -5 55 17 78 34 17 13 17 15
-5 54 -19 34 -25 38 -41 30 -14 -8 -16 -14 -8 -29 6 -11 7 -20 2 -20 -5 0 -15
11 -22 25 -12 22 -11 26 11 44 13 11 27 20 30 21 7 0 79 -106 79 -118 0 -4
-28 -24 -62 -44 l-61 -36 -62 91 -62 92 26 22 c14 12 49 39 78 60 29 21 52 41
53 44 0 3 -39 52 -87 108 l-87 101 -30 -28 c-17 -16 -46 -42 -65 -59 l-34 -31
58 -66 58 -67 31 28 c17 15 35 31 40 35 4 3 -4 22 -20 41 -23 29 -30 33 -45
24 -13 -8 -15 -15 -8 -29 13 -24 4 -23 -21 4 l-20 22 22 23 c12 13 27 23 34
23 13 0 94 -92 94 -106 -1 -13 -98 -86 -116 -88 -8 0 -45 35 -83 79 l-68 80
75 70 75 70 -74 72 c-102 98 -315 263 -341 263 -13 0 -100 -142 -91 -150 4 -4
38 -28 75 -54 l67 -47 31 43 31 43 -33 27 c-35 29 -64 36 -70 16 -3 -7 5 -20
16 -29 32 -27 11 -34 -23 -8 l-30 22 21 38 c13 23 26 35 33 31 46 -29 124 -88
122 -94 -1 -3 -23 -33 -49 -67 l-48 -60 -73 52 c-40 28 -83 59 -97 68 l-23 15
52 88 c50 83 52 88 35 101 -29 22 -235 127 -239 123 -3 -2 -20 -38 -39 -81
l-35 -76 79 -41 c44 -22 82 -40 85 -40 10 0 46 81 40 90 -4 6 -24 19 -45 30
-36 18 -39 18 -45 2 -4 -11 1 -22 14 -31 34 -22 24 -32 -14 -14 -19 9 -35 21
-35 25 0 11 29 68 34 68 5 0 129 -70 135 -75 4 -5 -68 -135 -74 -135 -4 0
-193 98 -203 105 -1 1 13 42 33 91 20 48 34 93 31 100 -4 9 -218 94 -238 94
-11 0 -59 -163 -50 -171 15 -14 132 -51 145 -46 8 3 22 26 30 51 l15 45 -43
14 c-24 9 -46 13 -49 9 -11 -11 -6 -35 12 -49 15 -13 15 -13 -8 -7 -38 10 -43
19 -30 58 l11 35 67 -25 c36 -13 67 -26 69 -28 2 -1 -10 -34 -25 -72 -33 -80
-30 -79 -149 -38 -54 19 -83 34 -83 44 0 8 11 50 25 93 30 93 30 93 8 102 -65
25 -388 75 -485 75 l-48 0 0 -89z m411 28 c57 -11 107 -24 111 -28 4 -4 -4
-47 -18 -97 l-26 -90 -116 26 c-102 23 -117 29 -115 46 1 10 7 52 13 92 14 84
4 81 151 51z m1099 -588 l45 -40 -70 -70 -70 -70 -77 73 -78 73 57 76 56 76
46 -39 c25 -22 66 -58 91 -79z m555 -838 c4 -10 24 -69 46 -131 l38 -113 -22
-9 c-25 -11 -159 -42 -162 -38 -4 5 -76 227 -77 235 0 8 138 71 158 72 7 1 15
-7 19 -16z"/>
<path d="M2105 4773 c-100 -23 -98 -21 -90 -61 12 -63 26 -73 23 -17 l-3 50
68 13 c38 8 70 12 72 10 8 -8 26 -148 21 -156 -3 -5 -29 -12 -58 -15 -29 -4
-77 -13 -105 -20 l-52 -14 -16 53 c-8 28 -15 56 -15 61 0 33 -23 83 -38 83
-45 0 -401 -135 -389 -147 2 -2 30 8 61 23 31 14 62 24 69 21 7 -3 27 -43 46
-91 19 -47 40 -86 46 -86 6 0 60 16 120 36 60 19 163 46 229 60 66 13 120 25
122 27 2 3 -14 125 -21 155 -4 17 -12 22 -38 21 -17 -1 -41 -3 -52 -6z m-163
-115 l25 -92 -111 -38 c-61 -20 -112 -36 -113 -34 -2 1 -18 42 -37 90 -24 60
-31 89 -23 92 54 20 214 73 223 73 6 1 22 -40 36 -91z"/>
<path d="M1544 4591 c-45 -21 -84 -43 -88 -49 -7 -12 31 -82 45 -82 24 0 79
36 76 50 -3 16 -8 16 -44 5 -36 -10 -27 10 12 28 20 9 39 17 43 17 8 0 46 -71
40 -74 -31 -13 -77 -40 -74 -43 3 -4 83 32 94 42 2 2 -6 21 -17 43 -15 30 -17
42 -8 45 7 3 4 6 -6 6 -27 1 -117 -40 -117 -53 0 -23 15 -35 30 -26 8 6 22 10
30 9 8 0 -1 -8 -20 -19 -35 -19 -35 -19 -52 3 -10 12 -18 28 -18 34 0 12 128
83 148 83 5 0 23 -30 39 -67 l31 -68 -107 -56 c-76 -41 -110 -54 -118 -47 -7
6 -13 14 -13 18 0 4 -18 39 -41 78 l-41 71 -96 -60 c-54 -32 -110 -69 -125
-81 l-28 -23 54 -72 54 -73 74 52 c41 28 75 52 77 54 6 4 -48 84 -56 84 -4 0
-24 -11 -44 -25 -24 -16 -35 -30 -32 -40 7 -18 18 -19 45 -5 32 18 21 -4 -12
-24 l-31 -18 -24 28 c-13 16 -23 32 -24 36 0 9 109 80 126 82 22 2 96 -120 81
-132 -42 -32 -177 -122 -184 -122 -4 0 -34 34 -67 75 -32 41 -62 75 -66 75
-10 0 -172 -138 -182 -155 -4 -7 18 -36 55 -72 l62 -61 57 52 57 52 -32 37
-32 36 -30 -24 c-27 -23 -28 -26 -14 -41 14 -14 17 -14 22 0 4 11 1 13 -11 9
-13 -4 -12 0 6 18 l22 23 28 -27 27 -28 -49 -45 -49 -45 -54 53 c-29 29 -52
55 -51 59 5 12 155 139 165 139 5 0 26 -21 46 -47 20 -27 48 -61 61 -77 l24
-29 102 69 c56 37 104 73 107 80 3 8 -44 96 -83 152 -2 3 -118 -70 -158 -99
-5 -4 6 -25 24 -48 l33 -40 29 17 c42 24 54 40 40 54 -8 8 -15 8 -27 -2 -11
-9 -19 -10 -26 -3 -7 7 1 17 25 31 l35 21 21 -29 c11 -15 20 -32 20 -37 0 -4
-29 -27 -65 -50 l-64 -43 -45 63 -45 62 27 23 c15 12 63 45 106 71 l80 49 37
-59 c21 -32 45 -72 54 -88 l15 -30 123 61 124 62 -33 80 c-17 44 -36 81 -40
83 -5 1 -45 -15 -90 -36z"/>
<path d="M2215 4570 c-127 -20 -360 -79 -393 -101 -15 -9 -14 -10 3 -4 364
118 714 144 1052 79 632 -120 1159 -520 1465 -1109 32 -60 57 -104 58 -97 1
44 -170 325 -290 477 -195 245 -488 471 -777 599 -125 56 -336 119 -483 146
-172 32 -462 36 -635 10z"/>
<path d="M1705 4426 c-168 -69 -366 -188 -509 -306 -353 -288 -629 -744 -715
-1180 -36 -184 -60 -443 -43 -468 6 -9 11 45 15 140 19 552 277 1083 712 1469
120 107 330 241 480 307 61 26 121 53 135 59 59 27 -2 10 -75 -21z"/>
<path d="M2838 4422 c-21 -2 -38 -7 -38 -13 0 -14 -97 -11 -103 4 -4 10 -6 10
-6 0 -1 -15 -41 -18 -41 -3 0 6 -27 10 -61 10 -50 0 -60 -3 -55 -15 4 -13 -7
-15 -69 -15 -55 0 -74 3 -73 13 5 20 -111 23 -118 3 -7 -19 -40 -21 -47 -3 -4
10 -6 10 -6 0 -1 -7 -10 -13 -20 -13 -11 0 -22 6 -24 13 -3 7 -6 4 -6 -7 -1
-18 15 -18 522 -11 615 9 607 9 607 12 0 2 -16 10 -36 18 -51 21 -194 21 -194
0 0 -21 -38 -19 -43 3 -4 16 -5 16 -6 0 -1 -14 -10 -18 -45 -18 -30 0 -46 5
-50 15 -3 8 -15 14 -28 12 -13 -1 -40 -3 -60 -5z"/>
<path d="M2632 4362 l-213 -2 3 -33 3 -32 240 3 c132 2 248 6 258 8 11 4 17
15 17 35 0 29 -1 29 -47 27 -27 -2 -144 -4 -261 -6z"/>
<path d="M1059 4283 c-8 -10 -34 -35 -57 -55 l-41 -37 34 -38 c34 -37 35 -37
52 -18 12 13 13 15 2 7 -13 -9 -21 -6 -43 17 l-28 30 37 33 c59 52 60 52 101
8 64 -69 67 -76 41 -93 -12 -8 -47 -37 -77 -65 l-55 -51 -71 71 c-50 49 -76
68 -85 62 -49 -29 -247 -275 -317 -394 l-24 -39 72 -47 c39 -25 73 -44 76 -42
2 2 22 33 45 68 l41 64 -33 28 c-40 34 -55 33 -77 -4 -13 -21 -14 -30 -5 -39
9 -9 16 -9 28 1 12 10 15 10 15 -1 0 -8 -7 -22 -15 -32 -13 -18 -15 -18 -44 4
-17 13 -31 24 -31 26 0 2 16 29 35 59 23 35 41 54 49 51 18 -7 116 -78 116
-83 0 -6 -99 -164 -111 -178 -5 -5 -13 -5 -21 1 -7 6 -47 29 -89 51 l-76 41
-54 -107 c-29 -59 -54 -110 -56 -114 -3 -7 147 -81 152 -76 7 9 65 129 65 135
0 12 -76 53 -84 46 -3 -3 12 -14 34 -24 22 -10 40 -20 40 -23 0 -18 -56 -116
-67 -116 -19 0 -123 53 -123 62 0 8 88 188 96 197 1 2 27 -10 56 -27 104 -59
130 -73 132 -70 72 109 125 201 121 209 -5 8 -95 71 -131 92 -6 4 -26 -16 -46
-46 -63 -92 -62 -91 -18 -116 45 -25 54 -23 75 20 14 27 14 30 -2 36 -9 4 -19
1 -21 -5 -2 -7 -8 -10 -13 -6 -7 4 3 36 17 53 5 5 64 -40 64 -49 0 -15 -63
-110 -73 -110 -14 0 -117 69 -117 79 0 10 54 95 94 147 l33 43 79 -59 c43 -33
82 -60 85 -60 3 0 30 28 59 63 29 34 106 114 171 178 66 64 119 120 119 125 0
5 -26 37 -58 72 -54 60 -58 62 -73 45z m-110 -207 l64 -64 -61 -69 c-33 -37
-71 -81 -85 -98 l-25 -30 -54 38 c-29 20 -64 46 -77 56 l-25 19 29 39 c16 21
31 40 35 43 3 3 29 33 59 68 29 34 58 62 65 62 6 0 40 -29 75 -64z"/>
<path d="M2595 4270 c-38 -4 -60 -7 -48 -8 18 -2 64 -45 75 -70 4 -12 138 -2
138 11 0 5 11 25 26 44 l25 33 -73 -2 c-40 -1 -104 -4 -143 -8z"/>
<path d="M2636 3878 c-7 -253 -13 -803 -22 -1935 l-7 -782 38 -35 c20 -19 35
-41 33 -47 -2 -7 -20 -18 -39 -24 l-34 -12 -3 -191 c-2 -189 -2 -192 18 -192
12 0 28 6 35 14 8 7 32 16 55 20 l40 6 -2 1448 c-1 796 -4 1561 -6 1700 l-3
252 -48 0 -49 0 -6 -222z"/>
<path d="M3305 3939 c-3 -5 -8 -52 -11 -105 -2 -53 -7 -100 -9 -104 -8 -13 58
-19 101 -8 40 9 42 11 48 58 6 41 3 55 -20 92 -26 43 -97 87 -109 67z"/>
<path d="M1684 3834 c-13 -19 -14 -28 -5 -37 6 -6 11 -18 10 -26 0 -11 -2 -12
-6 -3 -2 6 -12 12 -20 12 -9 0 -13 6 -9 15 3 8 9 22 13 31 4 12 2 15 -8 12 -8
-2 -22 -29 -32 -59 -17 -50 -17 -58 -2 -105 8 -29 25 -64 36 -78 26 -33 62
-32 67 2 2 12 8 22 14 22 6 0 6 6 -2 15 -7 8 -8 15 -2 15 5 0 15 -7 22 -15 9
-11 16 -12 30 -3 14 9 22 9 32 0 11 -9 25 3 70 60 31 39 54 77 51 85 -3 7 -17
16 -32 19 -14 4 -32 11 -39 17 -19 15 -133 19 -149 5 -12 -10 -13 -7 -8 15 9
35 -9 35 -31 1z"/>
<path d="M1334 3684 c-55 -37 -55 -37 1 -30 28 4 60 4 72 -1 15 -6 0 -9 -48
-10 -52 -1 -76 -6 -90 -19 -32 -29 -6 -40 36 -15 40 23 64 28 43 8 -16 -16
-80 -43 -92 -39 -11 4 -26 -17 -26 -35 0 -20 22 -16 94 18 54 25 74 30 104 24
50 -9 30 11 -23 24 -22 5 -30 9 -18 10 12 1 33 -3 47 -9 34 -13 34 1 -1 56
-16 24 -35 44 -44 44 -9 0 -34 -12 -55 -26z"/>
<path d="M3471 3652 c-1 -39 -34 -107 -56 -115 -8 -4 -15 -15 -15 -26 0 -11
-5 -23 -12 -27 -8 -5 -9 -2 -5 9 8 21 -10 32 -28 17 -22 -18 -69 -8 -80 18 -5
12 -13 22 -17 22 -15 0 -8 -19 14 -40 24 -22 68 -26 86 -8 6 6 14 10 16 7 3
-3 -31 -42 -75 -88 -44 -46 -87 -94 -96 -108 -19 -28 -33 -160 -38 -360 l-4
-122 35 -11 c70 -23 181 29 289 136 53 52 60 64 58 94 -2 32 -1 30 15 -16 9
-28 26 -63 38 -79 18 -23 25 -26 52 -20 23 5 32 12 32 26 0 11 -4 18 -9 15
-11 -7 -61 31 -61 46 0 6 12 -1 27 -16 29 -30 44 -21 42 24 -1 23 -2 22 -8 -5
l-6 -29 -23 24 c-27 29 -28 47 -1 85 19 28 20 28 14 5 -8 -28 -8 -26 -6 -60 2
-24 3 -24 11 -4 19 48 27 30 34 -73 6 -92 5 -109 -10 -122 -15 -15 -15 -14 -5
6 14 27 14 73 1 73 -5 0 -11 -12 -11 -27 -2 -25 -2 -25 -6 -5 -4 19 -10 23
-36 20 -28 -3 -32 -8 -43 -48 -7 -25 -12 -38 -13 -30 -1 8 3 30 9 49 7 27 5
41 -11 73 l-20 39 -73 -68 c-73 -69 -152 -115 -215 -127 -47 -9 -125 18 -138
47 l-10 22 -12 -23 c-17 -33 1 -52 50 -52 31 0 39 -4 38 -17 0 -11 -3 -13 -6
-5 -2 6 -19 12 -37 12 -18 0 -41 6 -52 14 -17 13 -18 18 -6 48 22 54 25 68 14
68 -21 0 -64 -69 -69 -110 -6 -41 -4 -43 58 -103 61 -58 62 -60 17 -29 -74 51
-107 108 -89 155 8 21 7 25 -4 21 -20 -8 -28 -40 -20 -80 7 -41 71 -110 110
-120 14 -3 25 -10 25 -15 0 -10 -26 -2 -58 19 -30 19 -35 12 -13 -17 10 -12
42 -31 72 -42 32 -11 44 -18 31 -19 -47 0 -132 58 -132 91 0 20 -36 67 -45 58
-3 -4 -8 -22 -11 -40 -5 -29 1 -43 45 -98 27 -36 66 -73 85 -83 42 -22 45 -27
12 -21 -23 5 -24 3 -19 -38 2 -24 9 -55 14 -69 6 -16 6 -51 -1 -95 -5 -39 -10
-113 -11 -165 l-2 -95 -8 90 c-4 50 -5 123 0 163 8 80 -12 228 -33 246 -7 6
-20 23 -29 39 -30 46 -37 32 -37 -71 0 -73 5 -114 20 -158 11 -32 19 -66 17
-74 -2 -8 -9 9 -16 38 -7 28 -16 54 -21 57 -13 8 -30 -193 -30 -368 0 -190 10
-232 65 -275 16 -12 26 -25 23 -27 -3 -3 -24 15 -46 39 l-41 44 -12 -35 c-7
-23 -8 -54 -3 -91 5 -31 7 -91 5 -132 -1 -41 5 -151 14 -245 11 -106 16 -218
13 -296 l-5 -126 60 18 c33 10 76 29 96 43 77 54 85 58 46 22 -47 -44 -80 -63
-146 -82 -26 -8 -50 -18 -53 -22 -7 -11 116 -6 147 6 16 7 44 12 63 12 26 0
34 4 34 18 0 14 2 15 10 2 5 -8 10 -10 10 -5 0 6 4 4 9 -3 8 -14 8 -14 147 56
40 20 42 24 49 79 4 32 11 114 15 183 4 69 8 108 8 87 1 -25 6 -36 13 -31 8 4
9 -1 3 -17 -7 -22 -9 -81 -5 -150 1 -22 5 -25 24 -22 22 4 23 9 19 56 -2 29 1
68 6 87 l10 35 2 -40 c2 -22 2 -64 0 -93 -1 -32 2 -52 9 -52 14 0 14 -33 0
-47 -8 -8 -6 -29 10 -77 11 -36 21 -74 21 -86 0 -11 4 -20 9 -20 8 0 3 35 -18
115 -6 22 -10 47 -10 55 0 8 7 -6 14 -33 22 -79 23 -81 41 -66 25 20 55 92 65
156 5 32 12 74 15 93 6 38 -14 169 -28 184 -4 6 -8 18 -8 28 0 10 -6 21 -14
24 -8 3 -17 23 -21 45 -4 21 -11 39 -16 39 -5 0 -9 17 -8 38 0 28 2 32 8 17 5
-11 6 -26 4 -32 -3 -7 -1 -13 5 -13 5 0 14 -17 19 -37 5 -21 15 -37 21 -35 7
1 12 -12 12 -33 0 -19 5 -35 10 -35 6 0 10 -10 10 -22 0 -13 3 -33 6 -45 13
-49 20 -19 18 80 -1 56 -3 209 -3 340 -1 139 -5 237 -10 237 -5 0 -12 -10 -14
-22 -2 -13 -2 -5 1 17 3 22 5 59 6 82 0 23 4 37 8 30 8 -13 16 19 22 88 2 28
2 5 0 -50 -8 -203 -2 -513 11 -552 3 -7 12 -13 21 -13 16 0 17 22 12 288 -2
158 -3 252 -1 210 4 -76 4 -77 39 -99 19 -12 38 -19 41 -16 5 5 -3 60 -52 382
-20 128 -35 194 -47 201 -6 4 -8 -1 -5 -12 3 -11 2 -68 -2 -129 l-8 -110 -1
101 c-1 55 -5 104 -9 107 -17 18 -32 -34 -33 -113 -2 -99 -8 -96 -12 4 -2 45
-7 71 -15 74 -10 3 -13 -16 -14 -70 -1 -40 0 -77 1 -83 2 -5 5 -25 8 -43 2
-18 8 -35 13 -38 5 -3 9 -17 8 -32 -1 -27 -2 -24 -39 94 -6 17 -10 58 -10 92
0 35 -4 62 -10 62 -5 0 -10 -13 -10 -29 0 -17 -4 -32 -9 -35 -5 -4 -12 -30
-16 -59 -10 -80 -26 -161 -35 -172 -5 -6 -10 -28 -13 -50 -4 -39 -4 -38 -6 10
-3 48 -3 49 -12 19 -7 -25 -14 -31 -34 -31 -14 0 -28 4 -31 9 -4 6 -10 5 -15
-3 -6 -10 -9 -8 -9 9 0 13 4 21 9 17 5 -3 12 5 14 17 3 17 5 14 6 -9 1 -37 20
-46 22 -10 1 21 1 21 8 -3 8 -30 16 -19 27 40 4 25 9 37 12 28 2 -10 7 -18 12
-18 9 0 10 5 30 150 6 47 13 96 16 110 3 14 30 54 60 90 74 85 138 184 164
251 11 30 25 97 30 149 5 52 13 118 19 145 5 28 12 135 15 238 6 181 5 190
-16 228 -19 35 -140 129 -165 129 -5 0 -20 11 -33 25 -21 22 -25 23 -39 11
-18 -16 -90 -35 -135 -36 -24 0 -27 2 -16 15 7 8 9 15 6 15 -4 0 -3 8 2 18 5
9 6 28 1 42 -6 23 -7 23 -8 -8z"/>
<path d="M1381 3573 c-59 -11 -162 -171 -207 -318 -23 -77 -32 -89 -52 -73
-11 10 -13 27 -9 78 2 36 8 74 11 85 3 11 0 7 -8 -10 -32 -64 -11 -205 29
-205 22 0 50 51 64 116 7 30 15 54 17 51 8 -8 -24 -128 -40 -153 -18 -26 -54
-32 -74 -12 -9 9 -11 3 -7 -28 29 -254 31 -261 105 -374 39 -58 59 -80 74 -80
27 1 87 46 127 96 24 30 30 33 24 15 -5 -16 -4 -21 4 -17 14 9 14 29 0 43 -8
8 -22 8 -51 -3 -51 -18 -105 -17 -143 2 -16 8 -21 12 -10 8 49 -15 92 -15 125
-1 l35 15 -58 1 c-68 1 -99 15 -147 68 -30 32 -30 34 -5 12 49 -43 77 -57 128
-64 56 -9 60 1 12 33 -19 13 -47 40 -62 60 -24 32 -20 30 31 -15 53 -48 86
-66 86 -45 0 4 -16 24 -36 43 -20 18 -45 48 -57 64 -18 26 -14 24 27 -13 27
-23 51 -41 52 -39 2 2 -5 48 -15 103 -10 54 -21 140 -24 189 -7 109 5 54 23
-103 6 -56 18 -124 25 -150 8 -26 15 -61 15 -78 0 -16 6 -37 13 -45 13 -17
137 -70 205 -88 25 -7 40 -16 36 -23 -4 -7 2 -8 17 -3 18 5 15 1 -11 -17 -40
-27 -99 -120 -101 -158 -2 -22 -2 -22 -6 -3 -5 27 30 98 70 141 38 39 25 43
-17 5 l-31 -28 29 32 c16 18 28 35 25 37 -5 5 -109 36 -120 36 -4 0 -11 -9
-14 -20 -9 -27 -25 -16 -18 13 4 15 -2 11 -21 -16 -30 -43 -33 -55 -10 -37 13
12 14 10 3 -16 -21 -48 -58 -93 -100 -121 -21 -14 -39 -29 -39 -33 0 -4 9 -18
20 -31 l20 -24 20 24 c23 27 27 20 5 -12 -16 -25 -6 -94 20 -133 19 -29 104
-84 129 -84 15 0 6 9 -29 29 -27 16 -60 40 -73 54 -31 33 -39 95 -17 122 16
19 16 19 5 -4 -29 -58 20 -129 124 -180 l56 -29 -107 -8 -108 -9 190 -5 190
-6 -177 -2 c-205 -2 -200 1 -152 -98 41 -84 107 -134 223 -168 76 -22 79 -21
83 22 3 35 10 -214 24 -851 l6 -277 -147 0 -147 0 3 589 c3 463 1 593 -8 602
-11 10 -13 -81 -15 -456 -2 -432 -3 -448 -8 -200 -3 149 -5 361 -3 472 2 164
-1 209 -13 235 -14 30 -14 -2 -9 -337 10 -661 20 -1033 29 -1043 14 -13 26 16
26 64 l0 54 145 0 145 0 1 -27 c1 -47 9 -77 22 -85 14 -9 15 -7 19 57 l3 50
173 3 172 2 0 -60 c0 -47 3 -60 15 -60 12 0 15 19 15 108 0 59 3 171 7 250 6
140 6 142 -15 142 -21 0 -22 -4 -24 -177 l-3 -178 -168 -3 -169 -2 7 312 c4
172 8 324 10 338 2 14 7 162 11 330 3 168 8 308 11 313 2 4 8 7 13 7 6 0 7
-42 3 -105 -7 -119 -13 -113 85 -90 88 21 133 46 184 105 l44 50 2 -33 c2 -23
0 -28 -7 -17 -18 27 -23 1 -11 -52 40 -170 167 -307 301 -325 l40 -6 -3 50
c-2 39 -6 49 -17 45 -10 -4 -8 5 7 25 28 39 29 63 2 38 -15 -14 -29 -16 -63
-11 -24 4 -53 13 -63 21 -16 12 -13 12 21 0 48 -16 84 -10 107 19 25 31 24 50
-3 36 -11 -7 -23 -9 -27 -6 -3 3 0 6 6 6 6 0 18 10 26 23 14 23 32 90 19 71
-6 -7 -14 -7 -30 1 -21 11 -21 11 8 24 35 15 46 50 30 101 -6 20 -11 58 -11
84 0 44 -1 46 -17 31 -23 -24 -61 -36 -89 -29 -30 8 -30 14 1 60 17 26 25 31
25 19 0 -10 -10 -29 -22 -42 l-21 -23 26 0 c35 0 70 17 85 41 22 35 27 141 8
177 -20 39 -85 82 -124 82 -16 0 -37 9 -46 19 -10 11 -25 20 -34 19 -10 0 -46
7 -82 14 -51 12 -67 12 -75 3 -5 -7 -23 -16 -40 -19 -22 -5 -26 -4 -15 4 12 8
9 10 -15 11 -27 2 -25 3 10 9 l40 7 -37 2 c-20 0 -45 4 -55 7 -10 3 -14 2 -8
-3 10 -7 11 -13 6 -45 -2 -7 -9 4 -16 25 -16 44 -71 117 -88 117 -6 0 1 -12
15 -27 31 -34 58 -74 58 -86 0 -5 -15 13 -32 39 -38 57 -92 90 -169 104 l-54
9 52 -4 c29 -2 66 -11 83 -20 40 -21 52 -12 13 9 -38 20 -21 20 19 0 20 -11
46 -15 73 -12 25 3 52 0 66 -8 27 -15 123 -20 100 -5 -12 8 -8 11 14 17 26 6
27 8 10 15 -16 6 -13 8 13 8 34 1 46 21 11 21 -11 0 -18 4 -15 9 3 5 15 7 25
4 10 -3 22 0 25 6 5 7 -11 11 -48 11 -31 0 -56 5 -56 10 0 6 15 10 34 10 19 0
37 4 40 8 7 11 -111 4 -156 -10 -59 -17 -155 -2 -315 52 -82 26 -164 52 -185
55 l-36 7 0 141 c0 78 -5 158 -11 177 -6 19 -11 50 -11 69 l0 34 -46 -7 c-26
-3 -62 -6 -80 -6 -26 0 -34 -4 -34 -17 -1 -17 -1 -17 -11 0 -5 9 -17 17 -25
17 -8 0 -12 5 -9 10 4 6 11 7 17 4 5 -3 52 -3 104 1 l94 7 -6 41 c-3 23 -12
59 -20 80 -8 20 -12 37 -9 37 9 0 35 -73 35 -99 0 -14 5 -33 11 -41 17 -25 -3
136 -21 171 -10 18 -51 41 -68 38 -4 -1 -18 -4 -31 -6z"/>
<path d="M1638 3564 c-22 -21 2 -141 25 -127 6 3 7 1 3 -5 -4 -6 -2 -21 5 -33
8 -17 8 -20 -1 -14 -9 5 -10 1 -6 -16 3 -13 3 -18 0 -11 -3 6 -11 12 -17 12
-23 0 -86 36 -87 49 0 9 11 5 34 -13 28 -21 36 -23 45 -12 13 16 -4 65 -23 67
-6 0 -21 2 -33 5 -13 2 -23 3 -24 1 0 -1 -4 -42 -9 -92 -5 -49 -12 -103 -15
-120 -5 -25 -4 -27 5 -12 7 10 16 48 20 85 l9 67 -5 -80 c-3 -44 -5 -95 -4
-113 0 -20 -4 -31 -11 -30 -16 4 -27 -49 -31 -151 -3 -76 -1 -84 17 -91 15 -5
26 0 43 21 21 26 22 30 6 36 -9 3 -25 1 -35 -5 -15 -10 -17 -9 -13 3 9 22 47
23 72 2 10 -8 7 -15 -15 -33 -33 -27 -27 -35 40 -52 45 -11 49 -11 73 12 22
20 24 27 15 45 -7 11 -20 21 -31 21 -13 0 -23 13 -35 49 -10 32 -23 51 -35 54
-21 5 -27 31 -11 41 5 4 7 -3 4 -14 -4 -14 0 -20 11 -20 8 0 22 -12 30 -27
l15 -28 1 30 c0 17 5 37 10 45 8 12 9 9 6 -10 -15 -71 -10 -107 15 -113 19 -5
20 -2 15 26 -5 28 -1 36 29 60 48 38 69 81 54 109 -10 18 -8 24 7 35 12 9 20
10 22 3 7 -21 19 -9 16 16 -3 34 -13 42 -27 23 -8 -10 -19 -14 -31 -9 -18 6
-18 7 5 13 24 7 24 8 4 23 -12 9 -21 11 -23 4 -6 -16 -30 -12 -40 8 -11 21
-29 115 -38 200 -5 46 -11 62 -22 62 -12 0 -14 -10 -8 -57 4 -31 4 -54 0 -50
-4 3 -9 32 -13 63 -3 30 -9 52 -13 48z"/>
<path d="M1171 3488 c-30 -51 -41 -108 -22 -108 5 0 23 19 40 42 17 23 31 38
31 34 0 -16 -55 -96 -66 -96 -16 0 -37 -96 -30 -136 8 -42 21 -37 30 10 7 35
55 147 101 237 23 45 23 47 4 42 -11 -3 -28 2 -39 12 -18 16 -20 15 -49 -37z"/>
<path d="M372 3313 c-39 -106 -39 -108 8 -122 23 -7 43 -11 45 -9 1 2 7 13 14
25 16 31 14 53 -6 53 -13 0 -14 -3 -6 -8 7 -4 10 -17 6 -30 -4 -16 -13 -22
-32 -22 -49 0 -52 10 -29 83 25 77 20 75 122 36 l54 -20 -37 -108 -36 -108
-45 13 c-25 7 -69 19 -98 28 l-53 15 -10 -26 c-19 -52 -70 -334 -66 -371 4
-36 4 -36 5 8 3 71 7 73 96 61 126 -18 124 -18 131 37 10 74 62 274 96 368 17
47 28 88 25 91 -7 7 -147 63 -157 63 -4 0 -16 -26 -27 -57z m16 -223 c41 -10
75 -20 77 -22 2 -2 -8 -50 -21 -108 -13 -58 -24 -113 -24 -122 0 -9 -3 -19 -8
-22 -10 -6 -175 14 -184 23 -4 3 -3 24 2 46 5 22 19 84 31 138 18 83 24 97 37
92 10 -4 50 -15 90 -25z"/>
<path d="M1990 3152 c0 -6 5 -14 10 -17 6 -3 10 -12 10 -18 -1 -7 -9 -2 -19
11 -20 23 -38 31 -25 10 5 -8 2 -9 -10 -5 -10 4 -15 3 -11 -3 9 -14 -2 -12
-33 6 -25 15 -26 15 -7 -1 29 -24 59 -40 51 -26 -10 15 27 9 47 -7 17 -15 32
0 22 21 -4 6 0 4 9 -6 10 -13 21 -17 37 -12 14 5 19 4 15 -4 -4 -6 -19 -11
-33 -11 -15 0 -37 -10 -51 -22 -29 -28 -132 -47 -219 -40 l-63 5 11 -32 c6
-17 9 -45 7 -62 l-5 -30 41 6 c66 10 158 37 198 57 21 10 43 18 50 18 8 0 46
16 87 35 40 19 97 38 126 41 32 4 56 12 59 20 3 8 18 14 33 14 24 0 122 49
101 50 -4 0 -22 -9 -40 -20 -18 -11 -37 -20 -43 -20 -5 0 -2 5 8 11 9 6 15 14
12 20 -3 5 2 6 12 3 17 -5 17 -5 0 6 -15 10 -23 8 -44 -12 -15 -12 -23 -16
-19 -8 4 8 1 6 -8 -5 -8 -11 -20 -26 -26 -32 -7 -9 -39 -13 -93 -12 -45 0 -75
3 -67 7 17 8 27 72 11 72 -6 0 -11 -8 -11 -17 0 -14 -2 -15 -9 -4 -7 11 -9 11
-14 0 -4 -10 -6 -9 -6 4 -1 9 -8 17 -17 17 -9 0 -12 -5 -8 -12 5 -8 0 -7 -11
2 -17 14 -18 13 -12 -5 7 -19 6 -19 -7 -2 -15 19 -31 23 -20 5 5 -9 2 -9 -9 1
-10 8 -17 9 -17 3z"/>
<path d="M3857 2789 c-4 -46 -7 -117 -7 -156 0 -62 -3 -75 -20 -85 -11 -7 -20
-18 -20 -24 0 -6 -6 -17 -14 -23 -19 -16 -30 -64 -21 -91 12 -38 30 -5 80 145
l49 145 -14 67 c-21 110 -26 113 -33 22z"/>
<path d="M237 2750 c-4 -18 -7 -61 -7 -96 l0 -64 50 0 50 0 0 44 c0 45 -12 66
-26 45 -4 -8 -3 -9 4 -5 8 5 12 -4 12 -27 0 -28 -4 -35 -22 -39 -50 -9 -58 0
-58 60 0 100 -1 99 88 90 42 -3 77 -7 77 -7 1 -4 -17 -226 -19 -228 -1 -1 -43
-3 -93 -4 -50 -1 -97 -6 -105 -10 -8 -6 34 -8 102 -7 l115 3 7 130 c3 71 5
131 4 132 -1 2 -41 6 -88 9 l-85 7 -6 -33z"/>
<path d="M268 2473 l-48 -4 2 -57 c1 -54 2 -54 5 -12 3 24 10 48 16 52 7 4 42
8 79 8 l66 0 6 -47 c3 -27 7 -79 8 -118 l3 -70 -99 -12 c-54 -7 -100 -14 -102
-16 -5 -4 13 -116 32 -200 10 -43 20 -67 27 -64 7 2 44 12 82 22 39 10 72 20
73 21 2 1 -2 36 -9 78 -13 82 -11 81 -81 70 -31 -5 -38 -11 -37 -28 1 -17 2
-17 6 -3 2 9 10 17 17 17 8 0 27 3 43 6 29 6 29 6 42 -61 6 -37 11 -68 9 -70
-6 -4 -124 -35 -135 -35 -6 0 -14 8 -18 18 -12 30 -43 212 -36 216 3 2 50 10
104 16 l97 12 -6 112 c-9 164 -4 151 -55 152 -24 0 -65 -1 -91 -3z"/>
<path d="M4646 2419 c-3 -13 -7 -54 -9 -90 l-4 -66 53 -10 c59 -10 64 -6 64
65 0 25 -4 32 -20 32 -13 0 -20 -7 -20 -20 0 -11 -4 -20 -10 -20 -5 0 -10 16
-10 36 l0 36 49 -4 c55 -3 59 6 7 16 -54 10 -66 1 -66 -55 0 -42 3 -49 20 -49
15 0 20 7 20 27 0 20 3 24 11 16 7 -7 8 -24 4 -43 -7 -30 -9 -32 -42 -27 -20
4 -37 8 -39 10 -3 2 -1 36 2 76 l7 71 75 0 75 0 -6 -87 c-4 -49 -10 -103 -13
-122 l-7 -34 -66 7 c-36 3 -82 9 -102 12 l-36 6 -22 -113 c-12 -63 -42 -174
-66 -247 -49 -150 -53 -134 45 -171 30 -12 62 -21 71 -21 17 0 51 68 63 126 7
31 5 32 -40 48 -26 9 -49 16 -50 16 -4 0 -24 -63 -24 -75 0 -7 9 -15 20 -18
13 -3 20 0 20 8 0 8 5 17 11 21 9 5 10 -1 5 -22 -10 -38 -9 -38 -49 -25 l-34
11 15 58 c7 31 17 60 21 65 6 6 128 -27 140 -38 5 -6 -58 -190 -73 -210 -12
-17 -16 -17 -67 7 -53 26 -129 58 -134 58 -2 0 -6 -11 -9 -24 -3 -13 -27 -68
-52 -121 -25 -53 -44 -98 -42 -99 13 -11 146 -86 151 -86 7 0 60 101 77 146 8
21 5 25 -37 44 -25 11 -47 19 -48 18 -15 -18 -35 -73 -31 -84 7 -19 32 -18 40
1 3 8 10 15 15 15 5 0 3 -13 -5 -30 -18 -34 -24 -36 -64 -15 l-28 15 34 69 34
70 62 -28 c34 -16 64 -33 66 -39 3 -10 -65 -153 -95 -198 -14 -22 -14 -22
-104 29 -55 31 -93 46 -97 40 -4 -6 -36 -54 -71 -107 -35 -53 -62 -98 -60
-100 21 -20 133 -106 139 -106 10 0 72 85 94 129 l16 31 -41 27 c-40 27 -42
27 -56 8 -8 -11 -21 -32 -29 -47 -13 -25 -12 -28 4 -37 14 -7 21 -5 31 11 7
11 15 17 18 14 8 -8 -26 -56 -40 -56 -6 1 -23 10 -36 20 l-23 20 42 65 42 64
59 -40 c32 -22 59 -44 59 -49 0 -12 -79 -133 -112 -174 l-24 -29 -63 49 c-110
86 -106 85 -143 39 -39 -50 -217 -228 -281 -281 l-47 -40 56 -72 c37 -48 60
-70 68 -65 30 19 115 89 120 100 2 6 -10 28 -27 48 l-33 37 -32 -27 c-26 -22
-30 -30 -21 -41 7 -8 20 -12 30 -9 27 9 23 -10 -5 -29 -24 -15 -26 -15 -45 13
-12 16 -21 33 -21 38 0 4 23 28 52 53 l51 44 49 -54 c26 -30 48 -57 48 -61 0
-9 -181 -159 -190 -159 -3 1 -30 37 -60 80 -30 44 -58 80 -62 80 -15 0 -193
-121 -191 -130 3 -8 81 -140 89 -149 4 -4 79 40 113 67 l23 19 -27 41 -27 42
-29 -17 c-34 -20 -41 -58 -9 -48 11 3 20 2 20 -2 0 -13 -22 -33 -35 -33 -12 0
-53 66 -45 73 37 30 104 67 110 61 4 -5 24 -34 44 -64 42 -64 45 -57 -71 -129
l-81 -50 -14 22 c-8 12 -25 43 -38 70 -51 97 -42 95 -157 38 l-101 -51 34 -82
c20 -45 37 -84 39 -86 3 -3 107 48 133 66 11 8 10 17 -7 51 -12 22 -24 41 -27
41 -3 0 -19 -7 -35 -16 -30 -15 -35 -38 -8 -40 32 -3 33 -5 15 -19 -30 -23
-43 -18 -56 21 -7 19 -10 37 -8 38 1 2 26 15 54 29 l52 26 31 -58 c17 -32 31
-64 31 -70 0 -6 -35 -28 -77 -50 -126 -62 -114 -65 -158 44 -31 75 -42 94 -54
89 -109 -45 -393 -124 -446 -124 -13 0 -26 -4 -29 -9 -3 -4 0 -48 7 -97 10
-66 17 -89 28 -88 56 6 142 29 146 40 2 6 -1 31 -7 53 -9 35 -14 41 -31 37
-10 -4 -28 -9 -39 -12 -27 -7 -25 -30 3 -39 21 -6 21 -7 -6 -17 -34 -12 -33
-12 -42 34 -7 36 -6 37 32 47 105 28 100 30 113 -35 7 -33 16 -66 21 -76 9
-17 -6 -21 -183 -56 l-47 -9 -11 71 c-6 39 -13 88 -17 110 -5 38 -6 38 -42 32
-20 -3 -76 -9 -124 -12 l-88 -7 3 -91 3 -91 90 3 c49 2 90 4 91 5 1 1 -1 26
-3 55 l-6 52 -41 -2 -41 -1 38 -4 c37 -4 37 -5 37 -49 l0 -44 -52 -1 c-29 -1
-65 -3 -80 -5 l-28 -3 0 83 0 83 111 7 c62 3 114 5 116 2 2 -2 10 -45 18 -95
7 -50 16 -94 19 -100 6 -8 89 4 204 30 37 9 51 16 48 26 -3 8 -13 42 -21 76
-9 34 -18 67 -20 73 -2 8 -25 6 -77 -6 l-73 -17 2 -48 c1 -25 4 -49 7 -52 9
-9 79 12 84 25 2 7 -5 16 -17 19 -31 8 -26 23 8 23 25 0 29 -4 34 -33 2 -17 3
-35 1 -38 -2 -3 -31 -12 -65 -19 -71 -15 -74 -13 -83 59 -4 25 -9 58 -12 73
-5 26 -3 28 29 28 19 0 67 7 107 16 81 19 84 17 95 -45 3 -20 13 -59 21 -87
l15 -52 92 28 c104 31 232 82 347 140 l79 40 -41 72 c-22 40 -42 74 -43 76 -2
2 -32 -11 -68 -29 -63 -30 -65 -32 -55 -58 31 -79 23 -73 63 -54 19 9 35 19
35 22 -1 16 -19 33 -29 27 -6 -4 -11 -3 -11 3 0 10 39 36 44 29 7 -11 26 -60
26 -68 0 -12 -109 -64 -118 -56 -4 4 -19 37 -33 74 l-27 66 86 43 c47 24 88
43 91 43 3 0 28 -38 54 -85 27 -47 51 -85 53 -85 19 0 204 119 204 131 0 5
-21 40 -46 78 l-46 70 -63 -42 -63 -42 24 -47 c13 -27 28 -48 32 -48 4 0 18 9
31 19 26 20 23 58 -4 47 -23 -9 -18 12 7 25 18 10 24 8 39 -12 27 -34 21 -48
-38 -86 l-51 -33 -42 72 c-22 39 -39 72 -38 74 12 12 161 104 168 104 5 0 35
-36 66 -79 l58 -80 30 22 c55 38 186 149 186 156 0 4 -25 35 -56 69 l-56 62
-36 -30 c-21 -16 -50 -41 -66 -54 l-30 -25 29 -40 c15 -23 31 -41 34 -41 4 0
22 11 39 24 27 19 30 25 18 35 -7 6 -21 9 -30 5 -22 -9 -20 9 4 31 20 18 21
18 45 -5 14 -13 25 -29 25 -35 0 -15 -101 -95 -112 -89 -4 3 -27 31 -52 62
l-44 58 87 75 87 76 72 -76 72 -76 86 90 c105 109 265 321 264 350 -1 10 -114
87 -137 93 -6 2 -32 -30 -58 -70 l-47 -72 38 -33 c22 -18 41 -33 44 -33 3 0
17 19 32 42 21 33 24 45 15 56 -9 12 -14 11 -28 -7 -10 -12 -20 -21 -23 -21
-12 0 -5 26 14 48 19 23 20 23 50 6 16 -10 30 -22 30 -27 0 -15 -81 -127 -92
-127 -6 0 -36 21 -68 46 l-57 47 64 93 c35 52 66 94 68 94 3 0 43 -23 90 -51
48 -28 88 -49 90 -47 8 8 114 215 119 233 4 16 -3 24 -37 39 -23 11 -59 28
-80 38 l-38 19 -34 -76 c-19 -42 -35 -80 -35 -85 0 -11 79 -52 89 -45 5 2 16
21 26 41 14 30 15 38 4 45 -21 13 -27 11 -34 -11 -4 -11 -11 -18 -16 -15 -9 6
16 65 27 65 10 0 64 -31 64 -37 0 -6 -59 -125 -65 -132 -2 -2 -33 13 -69 33
-63 35 -65 38 -55 63 6 15 14 32 18 38 4 5 21 42 36 81 l29 71 82 -39 c45 -21
89 -38 97 -38 16 0 33 37 78 169 31 91 30 95 -21 107 -14 3 -46 12 -72 19 -26
8 -49 11 -51 7 -8 -14 -48 -144 -45 -147 2 -1 24 -12 50 -23 l47 -20 15 44
c14 41 14 46 -1 51 -9 4 -19 -1 -25 -10 -14 -25 -30 -21 -23 6 4 12 11 26 15
31 11 12 82 -13 77 -28 -2 -6 -12 -35 -21 -63 -10 -29 -21 -55 -26 -58 -4 -3
-40 9 -79 27 -52 22 -70 35 -66 46 3 8 17 52 32 98 15 46 32 84 38 84 5 0 50
-11 100 -25 49 -14 91 -25 92 -25 17 0 83 392 83 498 l0 62 -39 0 c-21 0 -59
3 -84 6 -43 6 -46 5 -51 -17z m71 -250 c58 -10 63 -13 63 -36 0 -34 -39 -226
-48 -235 -8 -8 -162 29 -175 41 -4 4 2 60 15 124 l23 117 29 0 c16 0 58 -5 93
-11z m-496 -1074 c38 -31 69 -61 69 -68 0 -15 -160 -189 -170 -185 -3 2 -35
33 -69 70 l-63 68 45 47 c24 27 59 65 77 86 18 20 34 37 37 37 3 0 37 -25 74
-55z m-888 -662 l35 -88 -24 -13 c-30 -16 -236 -84 -240 -79 -2 2 -14 43 -27
93 l-24 90 116 41 c64 23 119 42 122 42 4 1 23 -38 42 -86z"/>
<path d="M455 2205 c51 -428 265 -868 574 -1175 122 -122 256 -234 334 -278
64 -37 56 -24 -15 22 -143 94 -320 256 -433 396 -231 287 -381 620 -440 980
-19 116 -31 148 -20 55z"/>
<path d="M4535 2155 c-21 -145 -109 -424 -181 -570 -279 -572 -781 -971 -1407
-1119 -56 -14 -92 -25 -80 -25 40 -2 215 45 343 91 239 86 474 230 700 431
203 180 391 450 503 722 68 167 148 468 134 507 -2 7 -8 -9 -12 -37z"/>
<path d="M298 2168 c-59 -12 -58 -9 -23 -164 5 -21 7 -21 47 -9 37 10 43 16
46 41 3 34 -11 60 -27 50 -6 -4 -11 -16 -11 -27 0 -23 -16 -26 -23 -4 -4 11
-4 10 -3 -2 2 -26 30 -22 34 5 5 31 22 17 22 -17 0 -25 -5 -30 -36 -36 -20 -3
-37 -5 -39 -3 -1 2 -8 32 -14 67 -14 74 -13 76 58 86 25 3 55 9 67 11 19 5 23
-2 38 -83 27 -136 34 -122 -71 -153 -51 -14 -95 -29 -99 -33 -20 -20 180 -527
208 -527 13 0 150 76 149 84 -2 18 -65 136 -73 136 -5 0 -27 -9 -48 -20 l-40
-20 17 -35 c19 -41 43 -46 43 -10 0 14 4 25 8 25 8 0 32 -43 32 -55 0 -5 -56
-35 -64 -35 -6 0 -41 66 -56 105 -9 23 -5 27 51 55 34 16 65 30 70 30 12 0
101 -179 94 -190 -3 -5 -41 -29 -85 -54 -44 -26 -80 -49 -80 -52 0 -16 121
-204 144 -223 10 -9 28 1 77 40 35 28 63 56 61 61 -1 5 -22 38 -45 73 l-42 63
-43 -25 c-47 -28 -49 -33 -25 -74 22 -37 49 -34 46 4 -2 35 8 34 29 -1 17 -28
17 -29 -13 -51 -16 -12 -33 -19 -38 -16 -5 3 -26 30 -46 61 l-38 57 22 16 c11
9 43 28 69 43 l48 27 63 -96 c34 -53 58 -99 53 -102 -49 -33 -152 -115 -152
-121 0 -7 133 -163 174 -204 18 -18 20 -17 77 40 32 32 59 63 59 69 -1 5 -27
39 -59 74 l-58 65 -47 -39 -46 -39 34 -34 c29 -30 36 -33 56 -22 20 11 21 13
5 30 -10 11 -12 20 -6 24 5 3 19 -6 31 -21 l21 -27 -31 -30 -31 -31 -54 60
-54 60 32 28 c17 15 47 40 65 54 l33 26 32 -39 c17 -21 52 -61 76 -87 l44 -48
-40 -42 c-22 -23 -54 -58 -72 -77 l-32 -35 63 -58 c124 -114 369 -291 382
-276 19 20 84 139 76 139 -5 0 -24 -27 -42 -60 -18 -33 -38 -60 -45 -60 -11 0
-130 77 -182 119 l-24 19 63 83 63 84 -59 50 c-68 59 -201 189 -263 258 l-43
48 -74 -56 -74 -57 19 -27 c11 -14 41 -47 68 -73 l49 -48 32 29 c40 37 40 50
2 86 -25 24 -32 26 -45 15 -14 -12 -14 -15 0 -30 27 -30 0 -31 -28 -2 l-26 27
36 30 37 29 48 -55 c26 -30 48 -56 48 -59 0 -10 -92 -110 -100 -110 -9 0 -148
159 -162 185 -5 9 18 33 72 74 44 34 80 64 80 67 0 2 -30 50 -67 107 -37 56
-68 104 -70 106 -4 6 -163 -90 -163 -98 0 -4 23 -40 50 -80 33 -46 55 -69 63
-64 35 20 67 48 67 57 0 6 -11 24 -23 40 -16 20 -29 27 -41 23 -13 -5 -15 -11
-6 -26 6 -13 7 -22 0 -26 -5 -3 -16 8 -24 24 -16 29 -15 30 20 51 19 12 36 21
37 19 1 -2 20 -30 41 -62 22 -33 35 -61 30 -66 -5 -4 -32 -24 -60 -44 l-52
-37 -39 53 c-39 52 -93 138 -93 150 0 3 38 29 85 57 47 28 85 53 85 54 0 13
-103 216 -110 216 -12 0 -160 -69 -160 -75 0 -8 61 -128 72 -143 8 -9 18 -7
47 10 20 12 38 23 40 25 2 1 -4 21 -14 43 -15 33 -21 38 -35 30 -12 -7 -16
-17 -13 -32 5 -23 5 -23 -10 -3 -24 30 -21 39 18 58 l35 17 30 -60 c16 -33 30
-62 30 -64 0 -6 -118 -66 -131 -66 -10 0 -99 177 -99 197 0 6 40 28 90 49 49
22 90 44 90 51 0 7 -9 36 -19 65 -47 126 -111 373 -111 424 0 7 -84 2 -132 -8z
m207 -356 l42 -124 -41 -18 c-23 -9 -62 -27 -86 -38 -26 -12 -49 -17 -54 -12
-9 9 -97 263 -92 267 7 7 163 51 175 49 8 0 30 -50 56 -124z m653 -964 c17
-15 32 -30 32 -34 0 -13 -102 -144 -112 -144 -10 0 -93 66 -155 123 l-32 30
66 73 66 74 51 -48 c28 -26 66 -59 84 -74z"/>
<path d="M2100 2006 c0 -32 -41 -188 -83 -313 -18 -57 -32 -105 -30 -107 9 -9
48 40 60 74 l12 35 -6 -35 c-4 -19 -7 -45 -7 -57 -1 -11 -4 -19 -7 -17 -4 2
-23 -38 -44 -90 -28 -72 -35 -98 -27 -112 18 -33 67 -74 100 -83 l31 -9 7 61
c7 56 8 59 15 29 4 -20 1 -51 -6 -77 -17 -55 -4 -71 53 -61 55 10 124 14 112
6 -7 -4 2 -26 24 -61 56 -86 76 -109 97 -109 10 0 19 -6 19 -13 0 -15 31 -47
45 -47 5 0 1 6 -10 13 -10 8 -15 18 -12 24 3 5 -3 24 -14 41 -10 18 -19 42
-18 55 l0 22 9 -22 c11 -27 135 -91 125 -64 -3 9 4 5 16 -9 17 -20 20 -21 15
-6 -7 20 -7 20 16 0 l22 -19 -18 30 -19 30 27 -24 c14 -14 28 -22 31 -19 3 2
-4 13 -15 23 -23 21 -28 44 -5 25 9 -7 18 -11 21 -8 2 3 -13 21 -34 40 -21 19
-48 48 -60 66 -12 17 -32 33 -45 35 -20 4 -20 4 -1 6 20 1 20 2 6 79 -8 42
-14 90 -14 105 1 22 -2 27 -13 23 -9 -3 -15 0 -15 8 0 8 4 16 10 18 11 4 21
121 13 161 -7 34 -40 37 -46 5 -4 -19 -5 -18 -6 6 -1 23 -5 27 -21 23 -10 -3
-21 0 -24 7 -2 6 -5 3 -5 -6 -1 -10 -6 -18 -12 -18 -5 0 -8 4 -4 9 5 10 -32
51 -46 51 -4 0 -10 -6 -12 -12 -3 -7 -6 -4 -6 7 -1 20 -18 45 -31 45 -3 0 -5
-12 -5 -27 1 -16 -2 -39 -6 -53 -5 -18 -7 -6 -8 39 -1 53 -5 68 -28 95 -14 17
-29 30 -33 29 -4 -1 -7 5 -7 12 0 24 -26 95 -35 95 -4 0 -8 -28 -8 -62 0 -90
-12 -272 -18 -278 -2 -3 -2 78 1 180 4 121 3 170 -3 140 -26 -130 -33 -160
-37 -156 -3 2 2 40 10 83 24 124 28 163 17 163 -5 0 -10 -11 -10 -24z"/>
<path d="M2965 790 c-3 -5 -4 -14 -1 -19 3 -5 -12 -11 -34 -15 -30 -5 -38 -10
-33 -22 3 -8 12 -13 20 -10 8 3 11 1 8 -4 -8 -13 36 -13 71 0 14 6 43 12 63
14 l36 4 -40 -19 c-41 -19 -145 -24 -195 -10 -16 5 -42 2 -70 -9 -25 -10 -62
-20 -84 -24 -21 -4 -36 -10 -33 -13 10 -10 287 -15 300 -6 7 6 57 6 117 2 58
-3 109 -4 115 -1 5 4 44 6 85 7 l75 0 3 43 c4 48 0 50 -35 22 -28 -22 -86 -26
-139 -11 -17 5 -37 5 -43 1 -8 -4 6 -12 34 -19 63 -16 54 -22 -14 -9 -43 7
-60 6 -87 -7 -19 -9 -45 -14 -57 -12 -20 4 -19 4 4 6 42 2 63 24 61 65 -1 20
-4 41 -7 46 -8 13 -112 13 -120 0z"/>
<path d="M1427 618 c-63 -101 -85 -147 -74 -156 7 -6 61 -35 122 -65 75 -38
112 -52 116 -44 3 7 15 37 25 67 10 30 21 57 24 60 3 3 6 13 8 23 2 13 -13 25
-62 47 -36 17 -72 30 -79 30 -14 0 -47 -60 -47 -86 0 -8 16 -22 36 -31 31 -15
36 -15 44 -3 7 11 4 18 -10 24 -21 9 -27 26 -10 26 5 0 20 -5 34 -11 21 -10
23 -15 14 -40 -5 -16 -14 -31 -19 -34 -4 -3 -35 8 -67 24 l-59 30 28 60 c31
65 34 75 20 66 -10 -6 -61 -111 -61 -125 0 -13 142 -82 151 -73 4 4 14 25 23
46 14 36 14 38 -7 51 -42 26 -65 28 -77 7 -8 -17 -7 -22 11 -31 11 -7 18 -14
16 -17 -4 -4 -42 11 -55 22 -5 5 32 75 40 75 12 0 118 -48 118 -54 0 -22 -56
-136 -67 -136 -22 0 -193 91 -193 103 0 5 18 43 41 84 23 41 39 77 36 79 -3 3
-12 -5 -20 -18z"/>
<path d="M1470 633 c0 -14 449 -23 1212 -24 415 0 654 4 665 10 12 7 -133 10
-452 10 -258 1 -685 4 -947 8 -318 4 -478 3 -478 -4z"/>
<path d="M1543 603 c3 -5 36 -22 72 -37 36 -16 65 -32 65 -37 0 -5 -16 -50
-36 -100 -19 -50 -33 -93 -31 -95 2 -3 63 -24 135 -48 l132 -44 9 36 c24 92
33 133 30 136 -2 2 -40 17 -85 33 l-81 30 -12 -41 c-6 -23 -14 -46 -17 -52 -3
-7 15 -19 41 -30 40 -15 48 -15 56 -3 12 19 11 29 -1 29 -5 0 -10 -6 -10 -14
0 -12 -6 -12 -36 -3 -33 10 -35 13 -30 41 10 49 20 52 96 27 56 -18 70 -26 66
-39 -33 -119 -38 -133 -49 -129 -7 2 -59 19 -117 37 -58 17 -106 33 -108 35
-4 4 17 67 47 143 12 29 21 56 21 61 0 8 -99 56 -139 67 -14 3 -21 2 -18 -3z"/>
<path d="M1712 478 c-11 -29 -27 -70 -36 -90 l-16 -37 93 -30 c102 -33 102
-33 113 36 6 38 5 41 -22 47 -16 4 -37 9 -46 12 -13 4 -18 0 -18 -15 0 -12 4
-21 10 -21 5 0 7 7 4 15 -5 12 -1 13 25 4 39 -14 40 -16 29 -57 -10 -36 -16
-36 -115 0 l-52 19 20 52 c12 29 25 63 30 76 6 15 15 21 25 17 8 -3 57 -20
108 -37 l92 -31 -17 -77 c-9 -42 -20 -88 -24 -103 -7 -26 -4 -28 47 -42 78
-22 250 -48 284 -43 25 3 23 4 -9 6 l-39 1 7 53 c4 28 11 78 14 109 l7 58 -35
6 c-142 22 -333 74 -443 119 -13 5 -20 -5 -36 -47z m359 -68 c52 -11 104 -20
117 -20 20 0 23 -4 18 -27 -3 -16 -8 -61 -11 -100 -7 -68 -9 -73 -30 -73 -38
0 -218 39 -228 49 -6 6 -3 36 8 83 21 92 26 108 29 108 2 0 45 -9 97 -20z"/>
<path d="M2255 389 c-5 -17 -26 -181 -22 -185 1 -1 44 -5 95 -9 l92 -8 0 57 0
56 -50 0 c-43 0 -50 -3 -50 -20 0 -13 7 -20 20 -20 11 0 20 -5 20 -11 0 -8
-11 -9 -32 -5 -41 8 -42 9 -34 51 7 34 9 35 50 35 24 0 58 -3 75 -6 30 -6 32
-9 27 -43 -3 -20 -5 -53 -6 -73 0 -27 -4 -38 -15 -38 -8 0 -15 -4 -15 -8 0 -5
10 -8 23 -7 21 2 22 6 22 90 l0 89 -82 4 -82 4 -6 -45 c-4 -25 -4 -50 0 -56
10 -17 95 -14 95 3 0 8 -9 18 -20 21 -32 10 -23 25 15 25 35 0 35 0 35 -46 l0
-46 -77 7 c-43 4 -81 9 -84 11 -3 2 -2 32 3 66 5 35 10 71 11 82 1 17 8 18 82
12 44 -3 95 -6 113 -6 l32 0 0 -106 0 -106 134 4 c74 2 136 5 138 8 3 3 0 44
-6 91 l-10 87 -85 -6 c-47 -2 -87 -6 -89 -7 -2 -2 0 -26 4 -54 l7 -52 41 3
c29 2 42 8 44 21 2 11 -3 17 -17 17 -11 0 -25 8 -30 18 -9 15 -10 15 -11 -5 0
-17 6 -23 22 -23 27 0 21 -5 -14 -14 -27 -6 -28 -5 -28 38 l0 44 68 4 c37 2
70 1 74 -2 3 -3 10 -37 13 -76 l7 -71 -32 -7 c-18 -3 -75 -6 -126 -6 l-94 0 0
104 0 103 -91 7 c-50 4 -104 9 -120 13 -19 4 -30 1 -34 -8z"/>
</g>
</svg>
